<svg xmlns="http://www.w3.org/2000/svg" width="10rem" height="5rem" viewBox="0 0 319.667 78.474"><defs><style>.a,.c{fill:#fff;}.a{font-size:45px;font-family:KaushanScript-Regular, Kaushan Script;}.b{opacity:0.545;}</style></defs><text class="a" transform="translate(0 12.474)"><tspan x="-98.348" y="49">Chameleon</tspan></text><g class="b" transform="translate(158.265 -213.291)"><g transform="translate(-0.002 213.291)"><g transform="translate(0)"><path class="c" d="M160.625,284.6a11.683,11.683,0,0,0-1.926-.319,20,20,0,0,0,1.736-1.312,1.271,1.271,0,0,0,.079-1.785c-.773-1.213-1.6-.978-2.492-.385a15.688,15.688,0,0,1-3.318,1.931,6.057,6.057,0,0,1-6.144-.806,36.886,36.886,0,0,1-4.156-4.851c-2.669-3.193-5.038-7.142-8.21-9.068-.394-.239-.7-.9-1.138-1.5a13.511,13.511,0,0,0,1.533-.837c3.312-2.434,6.6-4.954,9.932-7.317a9.329,9.329,0,0,0,3.113-4.243c.134-.324.282-.631.42-.952,1.276-2.964,1.2-3.877-.631-5.809a27.6,27.6,0,0,0-2.742-2.389,10.008,10.008,0,0,1-2.733-4.939c-.561-1.861-1.419-2.824-2.621-3.124a5.674,5.674,0,0,0-2.238-1.106,10.7,10.7,0,0,1-1.583-1.487,8.619,8.619,0,0,0-2.954-2.06c-2.146-1-4.325-1.8-6.488-2.7-.386-.162-.749-.479-1.135-.643-1.167-.495-1.773.313-1.6,2.3a23.829,23.829,0,0,0,.636,3.35c.2.841.516,1.6.693,2.452a1.469,1.469,0,0,1,.023.259c-.167-.228-.342-.447-.525-.659a33.266,33.266,0,0,0-5.289-4.961c-.414-.92-.819-1.858-1.26-2.741a17.821,17.821,0,0,0-1.306-1.979c-.013,1.11.287,2.071.234,3.139q-.464-.282-.935-.543a24.984,24.984,0,0,0-4.125-6.054c.207,1.418.432,2.544.513,3.7a3.427,3.427,0,0,1-.025.644q-1.122-.434-2.258-.762c-.951-1.257-1.89-2.544-2.846-3.788-.464-.6-.979-1.1-1.607-1.788a27.323,27.323,0,0,1,.908,4.8q-.452-.069-.907-.122c-.333-.383-.654-.784-.965-1.2-.972-1.3-1.881-2.776-3.144-3.273a6.3,6.3,0,0,0-1.112-.225c.57,1.364,1.04,2.487,1.511,3.612-.069.136-.138.274-.206.411a10.6,10.6,0,0,1-1.249-.843c-1-.88-1.965-1.858-2.968-2.722a2.226,2.226,0,0,0-2.446-.423l1.15,3.492c-.062.111-.126.221-.189.331-.725-.386-1.445-.81-2.178-1.152a17.6,17.6,0,0,0-2.39-.954c-.261-.077-.56.21-.842.329.131.394.246.81.4,1.176s.345.666.521,1c-.037.129-.074.258-.112.388l-4.667-1.806.979,3.184h-5c.366,1.2.661,2.163,1.044,3.417l-5.555-.479c.3,1.32.513,2.273.752,3.336-1.394-.105-2.637-.2-4.054-.3a6.992,6.992,0,0,1,.408.981c.12.586.2,1.193.3,1.791a3.141,3.141,0,0,1-1.015.427,11.9,11.9,0,0,1-1.749-.175c.017.19.047.394.076.589-.759-.19-1.52-.381-2.274-.565-.581-.263-1.166-.506-1.755-.724a29.733,29.733,0,0,0-6.93-1.682,28.02,28.02,0,0,0-16.091.534c-5.493,1.73-10.79,4.578-16.14,7.179a86.941,86.941,0,0,1-10.733,3.946,47.792,47.792,0,0,1-5.854,1.486c-3.761.753-7.377-2.594-9.07-8.278a17.3,17.3,0,0,1,.957-11.963c1.953-3.923,4.871-4.37,6.55-3.179,2.912,2.065,4.405,5.18,3.986,10.016a9.866,9.866,0,0,1-1.668,4.926,4.225,4.225,0,0,1-.463.462c-1.791,1.493-4.081.987-5.331-1.773-1.076-2.375-.72-5.812.967-6.879a1.2,1.2,0,0,1,1.7.9,1.113,1.113,0,0,1-.024.913c-.059.143-.167.305-.147.289a.546.546,0,0,0-.094.094c-.013-.015-.047-.029-.125-.039-1.815-.226-1.929,4.506-.114,4.735,1.737.217,3.336-2.349,3.394-5.257,0-.114,0-.225,0-.335a6.351,6.351,0,0,0-.572-3.055,4.74,4.74,0,0,0-2.632-2.949c-2.006-.651-3.881,1.119-4.939,3.808a11.808,11.808,0,0,0,.1,9.927c1.414,3.634,3.967,5.591,6.568,5.11,1.987-.188,3.98-1.681,5.633-4.462,2.32-3.906,2.8-8.617,1.842-13.777-1.559-8.418-7.13-14.316-12.3-12.972-2.867.746-5.06,3.277-6.686,7.349-2.85,7.14-2.879,14.658-1.1,22.361a17.764,17.764,0,0,0,5.019,8.785c2.553,2.63,5.409,2.945,8.281,3.227a89.345,89.345,0,0,0,20.914-.766q3.851-.527,7.705-.987a3,3,0,0,0,1.785-.1l.475-.175q5.567-.646,11.136-1.161a37.055,37.055,0,0,1,6.539.4c.324.1.647.195.969.3a51.847,51.847,0,0,1,5.6,2.2,10.456,10.456,0,0,1,2.361,3.619l-.261,2.1c-.418.761-.757,1.306-1.048,1.917a60.194,60.194,0,0,0-5.013,16.913c-.25,1.629-.468,2.06-1.467,2.128a12.275,12.275,0,0,1-8.062-2.323,8.1,8.1,0,0,0-1.319-.818c-.517-.225-.987-.031-1.274.828a3.053,3.053,0,0,0,.085,2.418c.1.192.184.394.318.679-.226,0-.366-.009-.506,0a4.968,4.968,0,0,0-1.608.167c-.875.374-1.261,2.016-.919,3.553.319,1.43.815,1.721,1.8,1.143a5.025,5.025,0,0,1,1.364-.576c2.023-.484,4.048-.957,6.077-1.373,2.818-.578,5.592-.784,8.3,1.324a8.266,8.266,0,0,0,3.419,1.2c.623.149,1.087-.447,1.2-1.565s-.194-1.881-.8-2.19a6.511,6.511,0,0,0-1.921-.667c-1.029-.162-2.066-.182-3.1-.25-.444-.029-.621-.32-.544-1.124a10.9,10.9,0,0,1,1.054-4.177c.633-1.165,1.222-2.406,1.9-3.5,2.225-3.6,4.514-7.039,7.614-8.453a2.7,2.7,0,0,0,1.472-2.259l1.1.4c1.07.439,2.123.867,3.166,1.361a1.882,1.882,0,0,1,.8,1.073c.535,1.742,1.25,3.054,2.443,3.428,2.169.681,4.329,1.485,6.513,1.981,1.066.241,2.134.469,3.207.613a43.487,43.487,0,0,0,6.961,1.668,2.9,2.9,0,0,1-.332,2.095c-.834,1.655-1.756,3.188-2.572,4.867-1.711,3.511-3.915,4.361-6.458,3.6a13.012,13.012,0,0,0-1.535-.366,3.762,3.762,0,0,0-1.4-.106c-.759.164-1.133.961-1.089,2.06.047,1.175.575,2.023,1.321,1.986a11.211,11.211,0,0,0,1.607-.326c2.237-.451,4.476-1.29,6.711-1.252a15.9,15.9,0,0,1,8.728,2.936,5.224,5.224,0,0,0,1.562.688c.645.181,1.208-.177,1.627-1.055a1.967,1.967,0,0,0-.266-2.444,12.853,12.853,0,0,0-1.339-.968c.627-1.61-.049-3.185-1.176-2.963a3.551,3.551,0,0,0-.628.125c-1.556.6-3.106,1.253-4.667,1.815a2.088,2.088,0,0,1-2.508-.486,19.224,19.224,0,0,1,1.216-1.739q2.665-3,5.364-5.909a3.209,3.209,0,0,0,1.181-2.078,41.953,41.953,0,0,0,9.687-.891h1.917a16.619,16.619,0,0,0,2.183,9.107,8.56,8.56,0,0,1,.813,3.054c.2,1.556-.184,2.152-1.124,1.939-.79-.181-1.563-.61-2.354-.716a7.724,7.724,0,0,0-2.576.088c-.549.114-1.122.549-1.171,1.728a1.861,1.861,0,0,0,1.259,1.88,1.019,1.019,0,0,0,.56.065,21.289,21.289,0,0,0,2.627-.762,12.087,12.087,0,0,1,7.34-.878c2.181.508,4.318,1.532,6.484,2.238a5.914,5.914,0,0,0,2.235.271c.89-.063,1.383-1.194,1.3-2.673-.07-1.243-.568-1.78-1.216-1.955a19.721,19.721,0,0,0-2.041-.337c1.046-.8,1.277-1.29,1.091-2.189-.22-1.062-.8-1.39-1.724-.974a2.473,2.473,0,0,0-.469.254c-1.289.953-2.593,1.853-3.856,2.9-1.038.859-2,.611-2.969-.2a1.252,1.252,0,0,1-.392-.731,11.8,11.8,0,0,1-.121-2.885,13.521,13.521,0,0,0-.136-5.2c0-.173,0-.344.006-.517a2.986,2.986,0,0,0-.412-1.708c-.032-.166-.066-.329-.105-.492a1.257,1.257,0,0,1,.317-1.419c1.3-1.185,2.587-2.415,3.889-3.6a4.5,4.5,0,0,1,.822-.525,15.261,15.261,0,0,0,1.431,2.181,34.556,34.556,0,0,0,9.825,7.036c2.173,1.04,3.906,3.12,5.575,5.482l-3.4.686a3.862,3.862,0,0,0-.793.114,1.754,1.754,0,0,0-.621,1.239,2.7,2.7,0,0,0,.79,1.384c.236.215.6.112.9.024,1.314-.39,2.634-.747,3.935-1.243q.816-.166,1.633-.329a.632.632,0,0,0,.377-.259A6.813,6.813,0,0,1,154.926,287a6.725,6.725,0,0,0,4.487,1.25,3.5,3.5,0,0,0,1.551-.657c.613-.418.425-1.434.353-2.183A1.155,1.155,0,0,0,160.625,284.6Z" transform="translate(0.002 -213.291)"/></g></g></g></svg>